<?xml version="1.0" encoding="utf-8" standalone="no"?>
<!DOCTYPE svg PUBLIC "-//W3C//DTD SVG 1.1//EN"
  "http://www.w3.org/Graphics/SVG/1.1/DTD/svg11.dtd">
<!-- Created with matplotlib (https://matplotlib.org/) -->
<svg height="288pt" version="1.1" viewBox="0 0 432 288" width="432pt" xmlns="http://www.w3.org/2000/svg" xmlns:xlink="http://www.w3.org/1999/xlink">
 <metadata>
  <rdf:RDF xmlns:cc="http://creativecommons.org/ns#" xmlns:dc="http://purl.org/dc/elements/1.1/" xmlns:rdf="http://www.w3.org/1999/02/22-rdf-syntax-ns#">
   <cc:Work>
    <dc:type rdf:resource="http://purl.org/dc/dcmitype/StillImage"/>
    <dc:date>2021-05-25T15:16:38.506451</dc:date>
    <dc:format>image/svg+xml</dc:format>
    <dc:creator>
     <cc:Agent>
      <dc:title>Matplotlib v3.3.3, https://matplotlib.org/</dc:title>
     </cc:Agent>
    </dc:creator>
   </cc:Work>
  </rdf:RDF>
 </metadata>
 <defs>
  <style type="text/css">*{stroke-linecap:butt;stroke-linejoin:round;}</style>
 </defs>
 <g id="figure_1">
  <g id="patch_1">
   <path d="M 0 288 
L 432 288 
L 432 0 
L 0 0 
z
" style="fill:#002255;"/>
  </g>
  <g id="axes_1">
   <g id="patch_2">
    <path d="M 3.00024 284.99976 
L 428.99976 284.99976 
L 428.99976 3.00024 
L 3.00024 3.00024 
z
" style="fill:#002255;"/>
   </g>
   <g id="matplotlib.axis_1"/>
   <g id="matplotlib.axis_2"/>
   <g id="PathCollection_1">
    <path clip-path="url(#pbb861a8ab9)" d="M 144.966552 198.759995 
C 146.167099 198.759995 147.318637 198.283013 148.167551 197.434098 
C 149.016466 196.585183 149.493449 195.433646 149.493449 194.233099 
C 149.493449 193.032551 149.016466 191.881014 148.167551 191.032099 
C 147.318637 190.183184 146.167099 189.706202 144.966552 189.706202 
C 143.766005 189.706202 142.614468 190.183184 141.765553 191.032099 
C 140.916638 191.881014 140.439655 193.032551 140.439655 194.233099 
C 140.439655 195.433646 140.916638 196.585183 141.765553 197.434098 
C 142.614468 198.283013 143.766005 198.759995 144.966552 198.759995 
z
" style="fill:#fff0ed;stroke:#fff0ed;"/>
    <path clip-path="url(#pbb861a8ab9)" d="M 216.904442 21.71619 
C 218.468555 21.71619 219.968816 21.094762 221.07481 19.988768 
C 222.180804 18.882773 222.802233 17.382512 222.802233 15.8184 
C 222.802233 14.254288 222.180804 12.754027 221.07481 11.648032 
C 219.968816 10.542038 218.468555 9.92061 216.904442 9.92061 
C 215.34033 9.92061 213.840069 10.542038 212.734075 11.648032 
C 211.62808 12.754027 211.006652 14.254288 211.006652 15.8184 
C 211.006652 17.382512 211.62808 18.882773 212.734075 19.988768 
C 213.840069 21.094762 215.34033 21.71619 216.904442 21.71619 
z
" style="fill:#ffece1;stroke:#ffece1;"/>
    <path clip-path="url(#pbb861a8ab9)" d="M 319.065715 157.570215 
C 320.47024 157.570215 321.817429 157.012192 322.810578 156.019043 
C 323.803727 155.025893 324.36175 153.678705 324.36175 152.27418 
C 324.36175 150.869655 323.803727 149.522467 322.810578 148.529318 
C 321.817429 147.536169 320.47024 146.978145 319.065715 146.978145 
C 317.66119 146.978145 316.314002 147.536169 315.320853 148.529318 
C 314.327704 149.522467 313.76968 150.869655 313.76968 152.27418 
C 313.76968 153.678705 314.327704 155.025893 315.320853 156.019043 
C 316.314002 157.012192 317.66119 157.570215 319.065715 157.570215 
z
" style="fill:#ffe7d1;stroke:#ffe7d1;"/>
    <path clip-path="url(#pbb861a8ab9)" d="M 53.038852 195.527523 
C 54.19977 195.527523 55.313295 195.066286 56.134188 194.245393 
C 56.95508 193.424501 57.416318 192.310975 57.416318 191.150058 
C 57.416318 189.98914 56.95508 188.875615 56.134188 188.054722 
C 55.313295 187.23383 54.19977 186.772592 53.038852 186.772592 
C 51.877935 186.772592 50.76441 187.23383 49.943517 188.054722 
C 49.122624 188.875615 48.661387 189.98914 48.661387 191.150058 
C 48.661387 192.310975 49.122624 193.424501 49.943517 194.245393 
C 50.76441 195.066286 51.877935 195.527523 53.038852 195.527523 
z
" style="fill:#f7f0ff;stroke:#f7f0ff;"/>
    <path clip-path="url(#pbb861a8ab9)" d="M 199.192281 162.550501 
C 200.509099 162.550501 201.772161 162.027323 202.703292 161.096193 
C 203.634423 160.165062 204.1576 158.902 204.1576 157.585182 
C 204.1576 156.268364 203.634423 155.005302 202.703292 154.074171 
C 201.772161 153.14304 200.509099 152.619863 199.192281 152.619863 
C 197.875463 152.619863 196.612401 153.14304 195.68127 154.074171 
C 194.750139 155.005302 194.226962 156.268364 194.226962 157.585182 
C 194.226962 158.902 194.750139 160.165062 195.68127 161.096193 
C 196.612401 162.027323 197.875463 162.550501 199.192281 162.550501 
z
" style="fill:#ffefe9;stroke:#ffefe9;"/>
    <path clip-path="url(#pbb861a8ab9)" d="M 392.81976 136.332538 
C 394.323201 136.332538 395.765268 135.735215 396.828362 134.672121 
C 397.891455 133.609027 398.488779 132.16696 398.488779 130.663519 
C 398.488779 129.160077 397.891455 127.718011 396.828362 126.654917 
C 395.765268 125.591823 394.323201 124.9945 392.81976 124.9945 
C 391.316318 124.9945 389.874251 125.591823 388.811158 126.654917 
C 387.748064 127.718011 387.15074 129.160077 387.15074 130.663519 
C 387.15074 132.16696 387.748064 133.609027 388.811158 134.672121 
C 389.874251 135.735215 391.316318 136.332538 392.81976 136.332538 
z
" style="fill:#ffe0c0;stroke:#ffe0c0;"/>
    <path clip-path="url(#pbb861a8ab9)" d="M 140.743957 236.39293 
C 141.829004 236.39293 142.869757 235.961836 143.637002 235.194591 
C 144.404247 234.427347 144.835341 233.386594 144.835341 232.301546 
C 144.835341 231.216498 144.404247 230.175745 143.637002 229.408501 
C 142.869757 228.641256 141.829004 228.210162 140.743957 228.210162 
C 139.658909 228.210162 138.618156 228.641256 137.850911 229.408501 
C 137.083667 230.175745 136.652573 231.216498 136.652573 232.301546 
C 136.652573 233.386594 137.083667 234.427347 137.850911 235.194591 
C 138.618156 235.961836 139.658909 236.39293 140.743957 236.39293 
z
" style="fill:#fff0ed;stroke:#fff0ed;"/>
    <path clip-path="url(#pbb861a8ab9)" d="M 218.359006 198.391052 
C 219.600963 198.391052 220.79222 197.897617 221.670416 197.019421 
C 222.548612 196.141225 223.042047 194.949968 223.042047 193.708011 
C 223.042047 192.466054 222.548612 191.274798 221.670416 190.396601 
C 220.79222 189.518405 219.600963 189.02497 218.359006 189.02497 
C 217.117049 189.02497 215.925792 189.518405 215.047596 190.396601 
C 214.1694 191.274798 213.675965 192.466054 213.675965 193.708011 
C 213.675965 194.949968 214.1694 196.141225 215.047596 197.019421 
C 215.925792 197.897617 217.117049 198.391052 218.359006 198.391052 
z
" style="fill:#ffece1;stroke:#ffece1;"/>
    <path clip-path="url(#pbb861a8ab9)" d="M 91.303339 194.532431 
C 92.486417 194.532431 93.6212 194.062389 94.457763 193.225826 
C 95.294326 192.389263 95.764368 191.254481 95.764368 190.071402 
C 95.764368 188.888323 95.294326 187.753541 94.457763 186.916978 
C 93.6212 186.080415 92.486417 185.610373 91.303339 185.610373 
C 90.12026 185.610373 88.985478 186.080415 88.148915 186.916978 
C 87.312352 187.753541 86.84231 188.888323 86.84231 190.071402 
C 86.84231 191.254481 87.312352 192.389263 88.148915 193.225826 
C 88.985478 194.062389 90.12026 194.532431 91.303339 194.532431 
z
" style="fill:#fff5fe;stroke:#fff5fe;"/>
    <path clip-path="url(#pbb861a8ab9)" d="M 197.729517 223.371855 
C 198.887143 223.371855 199.997511 222.911925 200.816076 222.09336 
C 201.634641 221.274795 202.094571 220.164426 202.094571 219.0068 
C 202.094571 217.849174 201.634641 216.738806 200.816076 215.920241 
C 199.997511 215.101676 198.887143 214.641746 197.729517 214.641746 
C 196.571891 214.641746 195.461522 215.101676 194.642957 215.920241 
C 193.824392 216.738806 193.364462 217.849174 193.364462 219.0068 
C 193.364462 220.164426 193.824392 221.274795 194.642957 222.09336 
C 195.461522 222.911925 196.571891 223.371855 197.729517 223.371855 
z
" style="fill:#ffede7;stroke:#ffede7;"/>
    <path clip-path="url(#pbb861a8ab9)" d="M 276.534087 248.565135 
C 277.640853 248.565135 278.702437 248.125412 279.485039 247.342811 
C 280.26764 246.560209 280.707363 245.498625 280.707363 244.391859 
C 280.707363 243.285093 280.26764 242.223509 279.485039 241.440907 
C 278.702437 240.658306 277.640853 240.218583 276.534087 240.218583 
C 275.427321 240.218583 274.365737 240.658306 273.583135 241.440907 
C 272.800534 242.223509 272.360811 243.285093 272.360811 244.391859 
C 272.360811 245.498625 272.800534 246.560209 273.583135 247.342811 
C 274.365737 248.125412 275.427321 248.565135 276.534087 248.565135 
z
" style="fill:#ffe8d7;stroke:#ffe8d7;"/>
    <path clip-path="url(#pbb861a8ab9)" d="M 299.094172 172.390498 
C 300.451097 172.390498 301.752628 171.851386 302.712119 170.891895 
C 303.67161 169.932404 304.210722 168.630873 304.210722 167.273948 
C 304.210722 165.917023 303.67161 164.615491 302.712119 163.656 
C 301.752628 162.696509 300.451097 162.157397 299.094172 162.157397 
C 297.737247 162.157397 296.435715 162.696509 295.476224 163.656 
C 294.516733 164.615491 293.977621 165.917023 293.977621 167.273948 
C 293.977621 168.630873 294.516733 169.932404 295.476224 170.891895 
C 296.435715 171.851386 297.737247 172.390498 299.094172 172.390498 
z
" style="fill:#ffe7d1;stroke:#ffe7d1;"/>
    <path clip-path="url(#pbb861a8ab9)" d="M 88.269705 205.730788 
C 89.422332 205.730788 90.527904 205.272844 91.342934 204.457815 
C 92.157964 203.642785 92.615907 202.537212 92.615907 201.384586 
C 92.615907 200.23196 92.157964 199.126387 91.342934 198.311357 
C 90.527904 197.496327 89.422332 197.038384 88.269705 197.038384 
C 87.117079 197.038384 86.011506 197.496327 85.196477 198.311357 
C 84.381447 199.126387 83.923504 200.23196 83.923504 201.384586 
C 83.923504 202.537212 84.381447 203.642785 85.196477 204.457815 
C 86.011506 205.272844 87.117079 205.730788 88.269705 205.730788 
z
" style="fill:#fff5fe;stroke:#fff5fe;"/>
    <path clip-path="url(#pbb861a8ab9)" d="M 247.549991 201.063004 
C 248.801703 201.063004 250.002316 200.565694 250.88741 199.6806 
C 251.772504 198.795506 252.269814 197.594893 252.269814 196.343181 
C 252.269814 195.09147 251.772504 193.890856 250.88741 193.005762 
C 250.002316 192.120669 248.801703 191.623358 247.549991 191.623358 
C 246.29828 191.623358 245.097666 192.120669 244.212572 193.005762 
C 243.327478 193.890856 242.830168 195.09147 242.830168 196.343181 
C 242.830168 197.594893 243.327478 198.795506 244.212572 199.6806 
C 245.097666 200.565694 246.29828 201.063004 247.549991 201.063004 
z
" style="fill:#ffece1;stroke:#ffece1;"/>
    <path clip-path="url(#pbb861a8ab9)" d="M 115.390678 183.779978 
C 116.612005 183.779978 117.783475 183.29474 118.647084 182.431131 
C 119.510693 181.567522 119.995931 180.396052 119.995931 179.174725 
C 119.995931 177.953397 119.510693 176.781928 118.647084 175.918319 
C 117.783475 175.05471 116.612005 174.569471 115.390678 174.569471 
C 114.16935 174.569471 112.997881 175.05471 112.134272 175.918319 
C 111.270663 176.781928 110.785424 177.953397 110.785424 179.174725 
C 110.785424 180.396052 111.270663 181.567522 112.134272 182.431131 
C 112.997881 183.29474 114.16935 183.779978 115.390678 183.779978 
z
" style="fill:#fff4fa;stroke:#fff4fa;"/>
    <path clip-path="url(#pbb861a8ab9)" d="M 150.680988 220.113636 
C 151.824207 220.113636 152.920756 219.659431 153.729134 218.851053 
C 154.537512 218.042675 154.991717 216.946126 154.991717 215.802907 
C 154.991717 214.659689 154.537512 213.563139 153.729134 212.754762 
C 152.920756 211.946384 151.824207 211.492178 150.680988 211.492178 
C 149.53777 211.492178 148.44122 211.946384 147.632843 212.754762 
C 146.824465 213.563139 146.370259 214.659689 146.370259 215.802907 
C 146.370259 216.946126 146.824465 218.042675 147.632843 218.851053 
C 148.44122 219.659431 149.53777 220.113636 150.680988 220.113636 
z
" style="fill:#fff0ed;stroke:#fff0ed;"/>
    <path clip-path="url(#pbb861a8ab9)" d="M 144.273006 188.047533 
C 145.499967 188.047533 146.676839 187.560056 147.544431 186.692464 
C 148.412023 185.824872 148.899499 184.648 148.899499 183.421039 
C 148.899499 182.194079 148.412023 181.017207 147.544431 180.149615 
C 146.676839 179.282023 145.499967 178.794546 144.273006 178.794546 
C 143.046046 178.794546 141.869174 179.282023 141.001582 180.149615 
C 140.13399 181.017207 139.646513 182.194079 139.646513 183.421039 
C 139.646513 184.648 140.13399 185.824872 141.001582 186.692464 
C 141.869174 187.560056 143.046046 188.047533 144.273006 188.047533 
z
" style="fill:#fff1f2;stroke:#fff1f2;"/>
    <path clip-path="url(#pbb861a8ab9)" d="M 233.923244 164.0561 
C 235.258268 164.0561 236.538791 163.52569 237.482795 162.581686 
C 238.426799 161.637682 238.957209 160.357159 238.957209 159.022136 
C 238.957209 157.687113 238.426799 156.406589 237.482795 155.462585 
C 236.538791 154.518581 235.258268 153.988171 233.923244 153.988171 
C 232.588221 153.988171 231.307698 154.518581 230.363694 155.462585 
C 229.41969 156.406589 228.88928 157.687113 228.88928 159.022136 
C 228.88928 160.357159 229.41969 161.637682 230.363694 162.581686 
C 231.307698 163.52569 232.588221 164.0561 233.923244 164.0561 
z
" style="fill:#ffece1;stroke:#ffece1;"/>
    <path clip-path="url(#pbb861a8ab9)" d="M 272.713715 141.726695 
C 274.120907 141.726695 275.470654 141.167612 276.465689 140.172576 
C 277.460724 139.177541 278.019808 137.827794 278.019808 136.420602 
C 278.019808 135.01341 277.460724 133.663663 276.465689 132.668627 
C 275.470654 131.673592 274.120907 131.114509 272.713715 131.114509 
C 271.306522 131.114509 269.956775 131.673592 268.96174 132.668627 
C 267.966705 133.663663 267.407621 135.01341 267.407621 136.420602 
C 267.407621 137.827794 267.966705 139.177541 268.96174 140.172576 
C 269.956775 141.167612 271.306522 141.726695 272.713715 141.726695 
z
" style="fill:#ffe9d9;stroke:#ffe9d9;"/>
    <path clip-path="url(#pbb861a8ab9)" d="M 254.943587 167.11865 
C 256.284531 167.11865 257.570734 166.585887 258.518925 165.637697 
C 259.467115 164.689506 259.999878 163.403303 259.999878 162.062359 
C 259.999878 160.721415 259.467115 159.435212 258.518925 158.487021 
C 257.570734 157.538831 256.284531 157.006068 254.943587 157.006068 
C 253.602643 157.006068 252.31644 157.538831 251.368249 158.487021 
C 250.420059 159.435212 249.887296 160.721415 249.887296 162.062359 
C 249.887296 163.403303 250.420059 164.689506 251.368249 165.637697 
C 252.31644 166.585887 253.602643 167.11865 254.943587 167.11865 
z
" style="fill:#ffe9d9;stroke:#ffe9d9;"/>
    <path clip-path="url(#pbb861a8ab9)" d="M 143.675077 94.806686 
C 145.083642 94.806686 146.434706 94.247057 147.430712 93.251051 
C 148.426718 92.255045 148.986347 90.903981 148.986347 89.495416 
C 148.986347 88.086851 148.426718 86.735787 147.430712 85.739781 
C 146.434706 84.743775 145.083642 84.184146 143.675077 84.184146 
C 142.266512 84.184146 140.915448 84.743775 139.919442 85.739781 
C 138.923436 86.735787 138.363807 88.086851 138.363807 89.495416 
C 138.363807 90.903981 138.923436 92.255045 139.919442 93.251051 
C 140.915448 94.247057 142.266512 94.806686 143.675077 94.806686 
z
" style="fill:#fff1f2;stroke:#fff1f2;"/>
    <path clip-path="url(#pbb861a8ab9)" d="M 22.363855 195.566455 
C 23.509598 195.566455 24.608569 195.111246 25.418732 194.301083 
C 26.228895 193.49092 26.684104 192.391949 26.684104 191.246206 
C 26.684104 190.100462 26.228895 189.001491 25.418732 188.191328 
C 24.608569 187.381165 23.509598 186.925957 22.363855 186.925957 
C 21.218111 186.925957 20.11914 187.381165 19.308977 188.191328 
C 18.498814 189.001491 18.043605 190.100462 18.043605 191.246206 
C 18.043605 192.391949 18.498814 193.49092 19.308977 194.301083 
C 20.11914 195.111246 21.218111 195.566455 22.363855 195.566455 
z
" style="fill:#f7f0ff;stroke:#f7f0ff;"/>
    <path clip-path="url(#pbb861a8ab9)" d="M 232.194692 197.206439 
C 233.447843 197.206439 234.649836 196.708557 235.535947 195.822446 
C 236.422058 194.936335 236.91994 193.734342 236.91994 192.481192 
C 236.91994 191.228041 236.422058 190.026048 235.535947 189.139937 
C 234.649836 188.253826 233.447843 187.755944 232.194692 187.755944 
C 230.941542 187.755944 229.739549 188.253826 228.853438 189.139937 
C 227.967327 190.026048 227.469445 191.228041 227.469445 192.481192 
C 227.469445 193.734342 227.967327 194.936335 228.853438 195.822446 
C 229.739549 196.708557 230.941542 197.206439 232.194692 197.206439 
z
" style="fill:#ffece1;stroke:#ffece1;"/>
    <path clip-path="url(#pbb861a8ab9)" d="M 298.662313 173.461668 
C 300.016967 173.461668 301.31632 172.923458 302.274205 171.965573 
C 303.23209 171.007688 303.770299 169.708335 303.770299 168.353682 
C 303.770299 166.999028 303.23209 165.699675 302.274205 164.74179 
C 301.31632 163.783905 300.016967 163.245696 298.662313 163.245696 
C 297.30766 163.245696 296.008307 163.783905 295.050422 164.74179 
C 294.092537 165.699675 293.554327 166.999028 293.554327 168.353682 
C 293.554327 169.708335 294.092537 171.007688 295.050422 171.965573 
C 296.008307 172.923458 297.30766 173.461668 298.662313 173.461668 
z
" style="fill:#ffe7d1;stroke:#ffe7d1;"/>
    <path clip-path="url(#pbb861a8ab9)" d="M 280.994699 192.478896 
C 282.289602 192.478896 283.531645 191.964425 284.44728 191.04879 
C 285.362915 190.133155 285.877386 188.891112 285.877386 187.596208 
C 285.877386 186.301305 285.362915 185.059262 284.44728 184.143627 
C 283.531645 183.227992 282.289602 182.713521 280.994699 182.713521 
C 279.699795 182.713521 278.457752 183.227992 277.542117 184.143627 
C 276.626482 185.059262 276.112011 186.301305 276.112011 187.596208 
C 276.112011 188.891112 276.626482 190.133155 277.542117 191.04879 
C 278.457752 191.964425 279.699795 192.478896 280.994699 192.478896 
z
" style="fill:#ffe9d9;stroke:#ffe9d9;"/>
    <path clip-path="url(#pbb861a8ab9)" d="M 137.515922 214.054502 
C 138.670359 214.054502 139.777669 213.59584 140.593979 212.779529 
C 141.410289 211.963219 141.868952 210.855909 141.868952 209.701472 
C 141.868952 208.547036 141.410289 207.439726 140.593979 206.623416 
C 139.777669 205.807105 138.670359 205.348443 137.515922 205.348443 
C 136.361485 205.348443 135.254175 205.807105 134.437865 206.623416 
C 133.621555 207.439726 133.162892 208.547036 133.162892 209.701472 
C 133.162892 210.855909 133.621555 211.963219 134.437865 212.779529 
C 135.254175 213.59584 136.361485 214.054502 137.515922 214.054502 
z
" style="fill:#fff0ed;stroke:#fff0ed;"/>
    <path clip-path="url(#pbb861a8ab9)" d="M 113.009585 197.295793 
C 114.196944 197.295793 115.335832 196.82405 116.175422 195.984461 
C 117.015012 195.144871 117.486754 194.005983 117.486754 192.818624 
C 117.486754 191.631264 117.015012 190.492377 116.175422 189.652787 
C 115.335832 188.813197 114.196944 188.341454 113.009585 188.341454 
C 111.822226 188.341454 110.683338 188.813197 109.843748 189.652787 
C 109.004158 190.492377 108.532416 191.631264 108.532416 192.818624 
C 108.532416 194.005983 109.004158 195.144871 109.843748 195.984461 
C 110.683338 196.82405 111.822226 197.295793 113.009585 197.295793 
z
" style="fill:#fff3f7;stroke:#fff3f7;"/>
    <path clip-path="url(#pbb861a8ab9)" d="M 220.922758 119.835644 
C 222.338058 119.835644 223.695581 119.273339 224.69635 118.272571 
C 225.697118 117.271802 226.259422 115.914279 226.259422 114.498979 
C 226.259422 113.083679 225.697118 111.726155 224.69635 110.725387 
C 223.695581 109.724619 222.338058 109.162314 220.922758 109.162314 
C 219.507458 109.162314 218.149934 109.724619 217.149166 110.725387 
C 216.148398 111.726155 215.586093 113.083679 215.586093 114.498979 
C 215.586093 115.914279 216.148398 117.271802 217.149166 118.272571 
C 218.149934 119.273339 219.507458 119.835644 220.922758 119.835644 
z
" style="fill:#ffece1;stroke:#ffece1;"/>
    <path clip-path="url(#pbb861a8ab9)" d="M 221.124056 154.697354 
C 222.471214 154.697354 223.763377 154.162122 224.715961 153.209538 
C 225.668546 152.256953 226.203777 150.96479 226.203777 149.617632 
C 226.203777 148.270474 225.668546 146.978311 224.715961 146.025726 
C 223.763377 145.073142 222.471214 144.53791 221.124056 144.53791 
C 219.776898 144.53791 218.484734 145.073142 217.53215 146.025726 
C 216.579565 146.978311 216.044334 148.270474 216.044334 149.617632 
C 216.044334 150.96479 216.579565 152.256953 217.53215 153.209538 
C 218.484734 154.162122 219.776898 154.697354 221.124056 154.697354 
z
" style="fill:#ffece1;stroke:#ffece1;"/>
    <path clip-path="url(#pbb861a8ab9)" d="M 102.33763 178.266994 
C 103.564589 178.266994 104.74146 177.779518 105.609051 176.911927 
C 106.476641 176.044336 106.964117 174.867465 106.964117 173.640507 
C 106.964117 172.413548 106.476641 171.236677 105.609051 170.369086 
C 104.74146 169.501495 103.564589 169.014019 102.33763 169.014019 
C 101.110671 169.014019 99.9338 169.501495 99.066209 170.369086 
C 98.198619 171.236677 97.711143 172.413548 97.711143 173.640507 
C 97.711143 174.867465 98.198619 176.044336 99.066209 176.911927 
C 99.9338 177.779518 101.110671 178.266994 102.33763 178.266994 
z
" style="fill:#fff4fa;stroke:#fff4fa;"/>
    <path clip-path="url(#pbb861a8ab9)" d="M 176.28533 222.422305 
C 177.434676 222.422305 178.537102 221.965665 179.349812 221.152955 
C 180.162522 220.340245 180.619162 219.237818 180.619162 218.088473 
C 180.619162 216.939127 180.162522 215.836701 179.349812 215.023991 
C 178.537102 214.211281 177.434676 213.754641 176.28533 213.754641 
C 175.135985 213.754641 174.033559 214.211281 173.220849 215.023991 
C 172.408139 215.836701 171.951499 216.939127 171.951499 218.088473 
C 171.951499 219.237818 172.408139 220.340245 173.220849 221.152955 
C 174.033559 221.965665 175.135985 222.422305 176.28533 222.422305 
z
" style="fill:#ffede7;stroke:#ffede7;"/>
    <path clip-path="url(#pbb861a8ab9)" d="M 260.118806 69.956293 
C 261.644401 69.956293 263.107718 69.350167 264.186476 68.271408 
C 265.265235 67.192649 265.871361 65.729333 265.871361 64.203738 
C 265.871361 62.678142 265.265235 61.214826 264.186476 60.136067 
C 263.107718 59.057308 261.644401 58.451183 260.118806 58.451183 
C 258.59321 58.451183 257.129894 59.057308 256.051135 60.136067 
C 254.972376 61.214826 254.366251 62.678142 254.366251 64.203738 
C 254.366251 65.729333 254.972376 67.192649 256.051135 68.271408 
C 257.129894 69.350167 258.59321 69.956293 260.118806 69.956293 
z
" style="fill:#ffe9d9;stroke:#ffe9d9;"/>
    <path clip-path="url(#pbb861a8ab9)" d="M 303.904072 197.195713 
C 305.200661 197.195713 306.44432 196.680573 307.361147 195.763746 
C 308.277973 194.84692 308.793114 193.603261 308.793114 192.306672 
C 308.793114 191.010083 308.277973 189.766425 307.361147 188.849598 
C 306.44432 187.932771 305.200661 187.417631 303.904072 187.417631 
C 302.607483 187.417631 301.363825 187.932771 300.446998 188.849598 
C 299.530171 189.766425 299.015031 191.010083 299.015031 192.306672 
C 299.015031 193.603261 299.530171 194.84692 300.446998 195.763746 
C 301.363825 196.680573 302.607483 197.195713 303.904072 197.195713 
z
" style="fill:#ffe7d1;stroke:#ffe7d1;"/>
    <path clip-path="url(#pbb861a8ab9)" d="M 113.460828 154.869288 
C 114.743996 154.869288 115.974782 154.35948 116.882119 153.452143 
C 117.789457 152.544805 118.299265 151.314019 118.299265 150.030851 
C 118.299265 148.747682 117.789457 147.516897 116.882119 146.609559 
C 115.974782 145.702222 114.743996 145.192414 113.460828 145.192414 
C 112.177659 145.192414 110.946873 145.702222 110.039536 146.609559 
C 109.132199 147.516897 108.622391 148.747682 108.622391 150.030851 
C 108.622391 151.314019 109.132199 152.544805 110.039536 153.452143 
C 110.946873 154.35948 112.177659 154.869288 113.460828 154.869288 
z
" style="fill:#fff4fa;stroke:#fff4fa;"/>
    <path clip-path="url(#pbb861a8ab9)" d="M 264.984809 232.69001 
C 266.147108 232.69001 267.261959 232.228224 268.083829 231.406354 
C 268.905698 230.584484 269.367485 229.469633 269.367485 228.307334 
C 269.367485 227.145035 268.905698 226.030184 268.083829 225.208314 
C 267.261959 224.386445 266.147108 223.924658 264.984809 223.924658 
C 263.82251 223.924658 262.707659 224.386445 261.885789 225.208314 
C 261.063919 226.030184 260.602133 227.145035 260.602133 228.307334 
C 260.602133 229.469633 261.063919 230.584484 261.885789 231.406354 
C 262.707659 232.228224 263.82251 232.69001 264.984809 232.69001 
z
" style="fill:#ffe8d7;stroke:#ffe8d7;"/>
    <path clip-path="url(#pbb861a8ab9)" d="M 286.329278 112.876951 
C 287.80172 112.876951 289.214053 112.291944 290.255227 111.25077 
C 291.296401 110.209596 291.881408 108.797263 291.881408 107.324821 
C 291.881408 105.852379 291.296401 104.440047 290.255227 103.398873 
C 289.214053 102.357699 287.80172 101.772692 286.329278 101.772692 
C 284.856836 101.772692 283.444503 102.357699 282.40333 103.398873 
C 281.362156 104.440047 280.777148 105.852379 280.777148 107.324821 
C 280.777148 108.797263 281.362156 110.209596 282.40333 111.25077 
C 283.444503 112.291944 284.856836 112.876951 286.329278 112.876951 
z
" style="fill:#ffe9d9;stroke:#ffe9d9;"/>
    <path clip-path="url(#pbb861a8ab9)" d="M 109.547262 201.762352 
C 110.72079 201.762352 111.846412 201.296104 112.676222 200.466294 
C 113.506032 199.636484 113.97228 198.510862 113.97228 197.337334 
C 113.97228 196.163805 113.506032 195.038184 112.676222 194.208374 
C 111.846412 193.378564 110.72079 192.912316 109.547262 192.912316 
C 108.373733 192.912316 107.248112 193.378564 106.418302 194.208374 
C 105.588492 195.038184 105.122244 196.163805 105.122244 197.337334 
C 105.122244 198.510862 105.588492 199.636484 106.418302 200.466294 
C 107.248112 201.296104 108.373733 201.762352 109.547262 201.762352 
z
" style="fill:#fff3f7;stroke:#fff3f7;"/>
    <path clip-path="url(#pbb861a8ab9)" d="M 289.619753 196.082126 
C 290.910346 196.082126 292.148255 195.569368 293.060842 194.65678 
C 293.97343 193.744193 294.486188 192.506285 294.486188 191.215691 
C 294.486188 189.925097 293.97343 188.687189 293.060842 187.774601 
C 292.148255 186.862014 290.910346 186.349255 289.619753 186.349255 
C 288.329159 186.349255 287.091251 186.862014 286.178663 187.774601 
C 285.266075 188.687189 284.753317 189.925097 284.753317 191.215691 
C 284.753317 192.506285 285.266075 193.744193 286.178663 194.65678 
C 287.091251 195.569368 288.329159 196.082126 289.619753 196.082126 
z
" style="fill:#ffe7d1;stroke:#ffe7d1;"/>
    <path clip-path="url(#pbb861a8ab9)" d="M 346.737088 109.318802 
C 348.259018 109.318802 349.718819 108.714133 350.794986 107.637966 
C 351.871153 106.561798 352.475823 105.101998 352.475823 103.580067 
C 352.475823 102.058137 351.871153 100.598336 350.794986 99.522169 
C 349.718819 98.446002 348.259018 97.841333 346.737088 97.841333 
C 345.215158 97.841333 343.755357 98.446002 342.67919 99.522169 
C 341.603023 100.598336 340.998354 102.058137 340.998354 103.580067 
C 340.998354 105.101998 341.603023 106.561798 342.67919 107.637966 
C 343.755357 108.714133 345.215158 109.318802 346.737088 109.318802 
z
" style="fill:#ffe3c8;stroke:#ffe3c8;"/>
    <path clip-path="url(#pbb861a8ab9)" d="M 172.541563 175.086733 
C 173.814894 175.086733 175.036243 174.580833 175.936624 173.680452 
C 176.837005 172.780072 177.342904 171.558722 177.342904 170.285391 
C 177.342904 169.012061 176.837005 167.790711 175.936624 166.890331 
C 175.036243 165.98995 173.814894 165.48405 172.541563 165.48405 
C 171.268232 165.48405 170.046883 165.98995 169.146502 166.890331 
C 168.246121 167.790711 167.740222 169.012061 167.740222 170.285391 
C 167.740222 171.558722 168.246121 172.780072 169.146502 173.680452 
C 170.046883 174.580833 171.268232 175.086733 172.541563 175.086733 
z
" style="fill:#fff1f2;stroke:#fff1f2;"/>
    <path clip-path="url(#pbb861a8ab9)" d="M 87.599272 210.393967 
C 88.738823 210.393967 89.831854 209.941219 90.637638 209.135434 
C 91.443422 208.32965 91.896171 207.236619 91.896171 206.097068 
C 91.896171 204.957517 91.443422 203.864486 90.637638 203.058702 
C 89.831854 202.252917 88.738823 201.800169 87.599272 201.800169 
C 86.459721 201.800169 85.36669 202.252917 84.560905 203.058702 
C 83.755121 203.864486 83.302373 204.957517 83.302373 206.097068 
C 83.302373 207.236619 83.755121 208.32965 84.560905 209.135434 
C 85.36669 209.941219 86.459721 210.393967 87.599272 210.393967 
z
" style="fill:#fff5fe;stroke:#fff5fe;"/>
    <path clip-path="url(#pbb861a8ab9)" d="M 237.353509 149.265203 
C 238.722776 149.265203 240.036145 148.721188 241.004363 147.75297 
C 241.972581 146.784752 242.516596 145.471383 242.516596 144.102116 
C 242.516596 142.732849 241.972581 141.41948 241.004363 140.451262 
C 240.036145 139.483044 238.722776 138.939029 237.353509 138.939029 
C 235.984242 138.939029 234.670873 139.483044 233.702655 140.451262 
C 232.734437 141.41948 232.190422 142.732849 232.190422 144.102116 
C 232.190422 145.471383 232.734437 146.784752 233.702655 147.75297 
C 234.670873 148.721188 235.984242 149.265203 237.353509 149.265203 
z
" style="fill:#ffece1;stroke:#ffece1;"/>
    <path clip-path="url(#pbb861a8ab9)" d="M 229.044754 123.100348 
C 230.459184 123.100348 231.815874 122.538388 232.816028 121.538235 
C 233.816181 120.538081 234.378141 119.181391 234.378141 117.766961 
C 234.378141 116.35253 233.816181 114.99584 232.816028 113.995686 
C 231.815874 112.995533 230.459184 112.433573 229.044754 112.433573 
C 227.630323 112.433573 226.273633 112.995533 225.273479 113.995686 
C 224.273326 114.99584 223.711366 116.35253 223.711366 117.766961 
C 223.711366 119.181391 224.273326 120.538081 225.273479 121.538235 
C 226.273633 122.538388 227.630323 123.100348 229.044754 123.100348 
z
" style="fill:#ffece1;stroke:#ffece1;"/>
    <path clip-path="url(#pbb861a8ab9)" d="M 256.235248 199.480245 
C 257.496207 199.480245 258.705691 198.979261 259.597324 198.087628 
C 260.488956 197.195995 260.989941 195.986512 260.989941 194.725553 
C 260.989941 193.464594 260.488956 192.25511 259.597324 191.363478 
C 258.705691 190.471845 257.496207 189.97086 256.235248 189.97086 
C 254.974289 189.97086 253.764806 190.471845 252.873173 191.363478 
C 251.98154 192.25511 251.480556 193.464594 251.480556 194.725553 
C 251.480556 195.986512 251.98154 197.195995 252.873173 198.087628 
C 253.764806 198.979261 254.974289 199.480245 256.235248 199.480245 
z
" style="fill:#ffe9d9;stroke:#ffe9d9;"/>
    <path clip-path="url(#pbb861a8ab9)" d="M 322.353207 245.636933 
C 323.497486 245.636933 324.595053 245.182307 325.40418 244.373179 
C 326.213308 243.564052 326.667934 242.466485 326.667934 241.322206 
C 326.667934 240.177927 326.213308 239.080361 325.40418 238.271234 
C 324.595053 237.462106 323.497486 237.007479 322.353207 237.007479 
C 321.208929 237.007479 320.111362 237.462106 319.302235 238.271234 
C 318.493107 239.080361 318.03848 240.177927 318.03848 241.322206 
C 318.03848 242.466485 318.493107 243.564052 319.302235 244.373179 
C 320.111362 245.182307 321.208929 245.636933 322.353207 245.636933 
z
" style="fill:#ffe5cf;stroke:#ffe5cf;"/>
    <path clip-path="url(#pbb861a8ab9)" d="M 136.247186 193.987954 
C 137.455062 193.987954 138.61363 193.50806 139.467727 192.653963 
C 140.321825 191.799865 140.801719 190.641298 140.801719 189.433422 
C 140.801719 188.225545 140.321825 187.066978 139.467727 186.212881 
C 138.61363 185.358783 137.455062 184.878889 136.247186 184.878889 
C 135.03931 184.878889 133.880743 185.358783 133.026645 186.212881 
C 132.172548 187.066978 131.692653 188.225545 131.692653 189.433422 
C 131.692653 190.641298 132.172548 191.799865 133.026645 192.653963 
C 133.880743 193.50806 135.03931 193.987954 136.247186 193.987954 
z
" style="fill:#fff1f2;stroke:#fff1f2;"/>
    <path clip-path="url(#pbb861a8ab9)" d="M 220.013376 205.595978 
C 221.236354 205.595978 222.409406 205.110084 223.274182 204.245308 
C 224.138958 203.380533 224.624852 202.20748 224.624852 200.984502 
C 224.624852 199.761525 224.138958 198.588472 223.274182 197.723696 
C 222.409406 196.858921 221.236354 196.373026 220.013376 196.373026 
C 218.790398 196.373026 217.617346 196.858921 216.75257 197.723696 
C 215.887794 198.588472 215.4019 199.761525 215.4019 200.984502 
C 215.4019 202.20748 215.887794 203.380533 216.75257 204.245308 
C 217.617346 205.110084 218.790398 205.595978 220.013376 205.595978 
z
" style="fill:#ffece1;stroke:#ffece1;"/>
    <path clip-path="url(#pbb861a8ab9)" d="M 130.265658 215.278326 
C 131.413243 215.278326 132.513981 214.822385 133.325447 214.01092 
C 134.136912 213.199454 134.592853 212.098716 134.592853 210.951131 
C 134.592853 209.803545 134.136912 208.702807 133.325447 207.891342 
C 132.513981 207.079876 131.413243 206.623936 130.265658 206.623936 
C 129.118072 206.623936 128.017334 207.079876 127.205869 207.891342 
C 126.394403 208.702807 125.938463 209.803545 125.938463 210.951131 
C 125.938463 212.098716 126.394403 213.199454 127.205869 214.01092 
C 128.017334 214.822385 129.118072 215.278326 130.265658 215.278326 
z
" style="fill:#fff3f7;stroke:#fff3f7;"/>
    <path clip-path="url(#pbb861a8ab9)" d="M 80.390945 158.658703 
C 81.648408 158.658703 82.854538 158.159108 83.743698 157.269947 
C 84.632859 156.380786 85.132454 155.174656 85.132454 153.917193 
C 85.132454 152.65973 84.632859 151.4536 83.743698 150.564439 
C 82.854538 149.675279 81.648408 149.175683 80.390945 149.175683 
C 79.133481 149.175683 77.927351 149.675279 77.038191 150.564439 
C 76.14903 151.4536 75.649435 152.65973 75.649435 153.917193 
C 75.649435 155.174656 76.14903 156.380786 77.038191 157.269947 
C 77.927351 158.159108 79.133481 158.658703 80.390945 158.658703 
z
" style="fill:#fcf3ff;stroke:#fcf3ff;"/>
    <path clip-path="url(#pbb861a8ab9)" d="M 409.636145 121.19904 
C 411.18375 121.19904 412.668178 120.58417 413.7625 119.489848 
C 414.856821 118.395526 415.471691 116.911099 415.471691 115.363494 
C 415.471691 113.815889 414.856821 112.331462 413.7625 111.23714 
C 412.668178 110.142818 411.18375 109.527948 409.636145 109.527948 
C 408.088541 109.527948 406.604113 110.142818 405.509791 111.23714 
C 404.415469 112.331462 403.8006 113.815889 403.8006 115.363494 
C 403.8006 116.911099 404.415469 118.395526 405.509791 119.489848 
C 406.604113 120.58417 408.088541 121.19904 409.636145 121.19904 
z
" style="fill:#ffddb8;stroke:#ffddb8;"/>
    <path clip-path="url(#pbb861a8ab9)" d="M 225.220094 191.816962 
C 226.483447 191.816962 227.695226 191.315027 228.588551 190.421702 
C 229.481877 189.528377 229.983812 188.316597 229.983812 187.053245 
C 229.983812 185.789892 229.481877 184.578113 228.588551 183.684788 
C 227.695226 182.791462 226.483447 182.289527 225.220094 182.289527 
C 223.956742 182.289527 222.744962 182.791462 221.851637 183.684788 
C 220.958312 184.578113 220.456377 185.789892 220.456377 187.053245 
C 220.456377 188.316597 220.958312 189.528377 221.851637 190.421702 
C 222.744962 191.315027 223.956742 191.816962 225.220094 191.816962 
z
" style="fill:#ffece1;stroke:#ffece1;"/>
    <path clip-path="url(#pbb861a8ab9)" d="M 270.295904 174.227962 
C 271.630414 174.227962 272.910446 173.697756 273.854087 172.754115 
C 274.797728 171.810474 275.327934 170.530442 275.327934 169.195932 
C 275.327934 167.861422 274.797728 166.58139 273.854087 165.637749 
C 272.910446 164.694108 271.630414 164.163901 270.295904 164.163901 
C 268.961394 164.163901 267.681362 164.694108 266.737721 165.637749 
C 265.79408 166.58139 265.263873 167.861422 265.263873 169.195932 
C 265.263873 170.530442 265.79408 171.810474 266.737721 172.754115 
C 267.681362 173.697756 268.961394 174.227962 270.295904 174.227962 
z
" style="fill:#ffe9d9;stroke:#ffe9d9;"/>
    <path clip-path="url(#pbb861a8ab9)" d="M 115.743881 219.852779 
C 116.870337 219.852779 117.950807 219.405234 118.747332 218.608709 
C 119.543856 217.812185 119.991402 216.731714 119.991402 215.605259 
C 119.991402 214.478803 119.543856 213.398333 118.747332 212.601808 
C 117.950807 211.805284 116.870337 211.357738 115.743881 211.357738 
C 114.617425 211.357738 113.536955 211.805284 112.74043 212.601808 
C 111.943906 213.398333 111.49636 214.478803 111.49636 215.605259 
C 111.49636 216.731714 111.943906 217.812185 112.74043 218.608709 
C 113.536955 219.405234 114.617425 219.852779 115.743881 219.852779 
z
" style="fill:#fff3f7;stroke:#fff3f7;"/>
    <path clip-path="url(#pbb861a8ab9)" d="M 246.067843 164.69951 
C 247.408807 164.69951 248.69503 164.166739 249.643235 163.218534 
C 250.59144 162.270329 251.124211 160.984106 251.124211 159.643142 
C 251.124211 158.302177 250.59144 157.015955 249.643235 156.06775 
C 248.69503 155.119544 247.408807 154.586774 246.067843 154.586774 
C 244.726878 154.586774 243.440655 155.119544 242.49245 156.06775 
C 241.544245 157.015955 241.011474 158.302177 241.011474 159.643142 
C 241.011474 160.984106 241.544245 162.270329 242.49245 163.218534 
C 243.440655 164.166739 244.726878 164.69951 246.067843 164.69951 
z
" style="fill:#ffece1;stroke:#ffece1;"/>
    <path clip-path="url(#pbb861a8ab9)" d="M 199.28622 125.316537 
C 200.677657 125.316537 202.012292 124.763713 202.996187 123.779819 
C 203.980082 122.795924 204.532906 121.461289 204.532906 120.069852 
C 204.532906 118.678415 203.980082 117.34378 202.996187 116.359885 
C 202.012292 115.37599 200.677657 114.823166 199.28622 114.823166 
C 197.894783 114.823166 196.560148 115.37599 195.576253 116.359885 
C 194.592359 117.34378 194.039535 118.678415 194.039535 120.069852 
C 194.039535 121.461289 194.592359 122.795924 195.576253 123.779819 
C 196.560148 124.763713 197.894783 125.316537 199.28622 125.316537 
z
" style="fill:#ffefe9;stroke:#ffefe9;"/>
    <path clip-path="url(#pbb861a8ab9)" d="M 366.640041 275.98448 
C 367.648577 275.98448 368.615941 275.583784 369.329083 274.870642 
C 370.042226 274.1575 370.442921 273.190136 370.442921 272.1816 
C 370.442921 271.173064 370.042226 270.2057 369.329083 269.492558 
C 368.615941 268.779416 367.648577 268.37872 366.640041 268.37872 
C 365.631506 268.37872 364.664141 268.779416 363.950999 269.492558 
C 363.237857 270.2057 362.837161 271.173064 362.837161 272.1816 
C 362.837161 273.190136 363.237857 274.1575 363.950999 274.870642 
C 364.664141 275.583784 365.631506 275.98448 366.640041 275.98448 
z
" style="fill:#ffdec0;stroke:#ffdec0;"/>
    <path clip-path="url(#pbb861a8ab9)" d="M 41.191355 194.927507 
C 42.34823 194.927507 43.457877 194.467876 44.275911 193.649842 
C 45.093945 192.831808 45.553576 191.72216 45.553576 190.565286 
C 45.553576 189.408411 45.093945 188.298764 44.275911 187.48073 
C 43.457877 186.662696 42.34823 186.203065 41.191355 186.203065 
C 40.034481 186.203065 38.924833 186.662696 38.106799 187.48073 
C 37.288765 188.298764 36.829134 189.408411 36.829134 190.565286 
C 36.829134 191.72216 37.288765 192.831808 38.106799 193.649842 
C 38.924833 194.467876 40.034481 194.927507 41.191355 194.927507 
z
" style="fill:#f7f0ff;stroke:#f7f0ff;"/>
    <path clip-path="url(#pbb861a8ab9)" d="M 372.098195 113.207535 
C 373.63207 113.207535 375.103328 112.59812 376.187942 111.513507 
C 377.272555 110.428893 377.88197 108.957635 377.88197 107.42376 
C 377.88197 105.889885 377.272555 104.418627 376.187942 103.334014 
C 375.103328 102.2494 373.63207 101.639985 372.098195 101.639985 
C 370.56432 101.639985 369.093062 102.2494 368.008449 103.334014 
C 366.923835 104.418627 366.31442 105.889885 366.31442 107.42376 
C 366.31442 108.957635 366.923835 110.428893 368.008449 111.513507 
C 369.093062 112.59812 370.56432 113.207535 372.098195 113.207535 
z
" style="fill:#ffe0c0;stroke:#ffe0c0;"/>
    <path clip-path="url(#pbb861a8ab9)" d="M 167.114722 105.422419 
C 168.520545 105.422419 169.868979 104.863879 170.863047 103.869812 
C 171.857114 102.875744 172.415654 101.52731 172.415654 100.121487 
C 172.415654 98.715663 171.857114 97.367229 170.863047 96.373162 
C 169.868979 95.379094 168.520545 94.820555 167.114722 94.820555 
C 165.708898 94.820555 164.360464 95.379094 163.366397 96.373162 
C 162.372329 97.367229 161.81379 98.715663 161.81379 100.121487 
C 161.81379 101.52731 162.372329 102.875744 163.366397 103.869812 
C 164.360464 104.863879 165.708898 105.422419 167.114722 105.422419 
z
" style="fill:#fff1f2;stroke:#fff1f2;"/>
    <path clip-path="url(#pbb861a8ab9)" d="M 271.481884 251.590966 
C 272.572814 251.590966 273.61921 251.157535 274.390614 250.38613 
C 275.162018 249.614726 275.59545 248.568331 275.59545 247.4774 
C 275.59545 246.38647 275.162018 245.340074 274.390614 244.56867 
C 273.61921 243.797265 272.572814 243.363834 271.481884 243.363834 
C 270.390953 243.363834 269.344558 243.797265 268.573153 244.56867 
C 267.801749 245.340074 267.368318 246.38647 267.368318 247.4774 
C 267.368318 248.568331 267.801749 249.614726 268.573153 250.38613 
C 269.344558 251.157535 270.390953 251.590966 271.481884 251.590966 
z
" style="fill:#ffe8d7;stroke:#ffe8d7;"/>
    <path clip-path="url(#pbb861a8ab9)" d="M 195.101834 172.169214 
C 196.395049 172.169214 197.635472 171.655414 198.549913 170.740973 
C 199.464354 169.826532 199.978154 168.586109 199.978154 167.292894 
C 199.978154 165.999679 199.464354 164.759257 198.549913 163.844816 
C 197.635472 162.930375 196.395049 162.416575 195.101834 162.416575 
C 193.808619 162.416575 192.568197 162.930375 191.653756 163.844816 
C 190.739314 164.759257 190.225515 165.999679 190.225515 167.292894 
C 190.225515 168.586109 190.739314 169.826532 191.653756 170.740973 
C 192.568197 171.655414 193.808619 172.169214 195.101834 172.169214 
z
" style="fill:#ffefe9;stroke:#ffefe9;"/>
    <path clip-path="url(#pbb861a8ab9)" d="M 133.108804 227.196645 
C 134.221089 227.196645 135.287967 226.754729 136.074472 225.968225 
C 136.860976 225.18172 137.302892 224.114842 137.302892 223.002557 
C 137.302892 221.890271 136.860976 220.823393 136.074472 220.036888 
C 135.287967 219.250384 134.221089 218.808468 133.108804 218.808468 
C 131.996518 218.808468 130.92964 219.250384 130.143135 220.036888 
C 129.356631 220.823393 128.914715 221.890271 128.914715 223.002557 
C 128.914715 224.114842 129.356631 225.18172 130.143135 225.968225 
C 130.92964 226.754729 131.996518 227.196645 133.108804 227.196645 
z
" style="fill:#fff3f7;stroke:#fff3f7;"/>
    <path clip-path="url(#pbb861a8ab9)" d="M 162.486362 189.816174 
C 163.718953 189.816174 164.901226 189.326461 165.772799 188.454887 
C 166.644372 187.583314 167.134086 186.401041 167.134086 185.168451 
C 167.134086 183.93586 166.644372 182.753587 165.772799 181.882014 
C 164.901226 181.010441 163.718953 180.520727 162.486362 180.520727 
C 161.253771 180.520727 160.071499 181.010441 159.199925 181.882014 
C 158.328352 182.753587 157.838639 183.93586 157.838639 185.168451 
C 157.838639 186.401041 158.328352 187.583314 159.199925 188.454887 
C 160.071499 189.326461 161.253771 189.816174 162.486362 189.816174 
z
" style="fill:#fff1f2;stroke:#fff1f2;"/>
    <path clip-path="url(#pbb861a8ab9)" d="M 202.634847 250.392501 
C 203.696403 250.392501 204.714623 249.970741 205.465256 249.220107 
C 206.215889 248.469474 206.637649 247.451254 206.637649 246.389699 
C 206.637649 245.328143 206.215889 244.309924 205.465256 243.55929 
C 204.714623 242.808657 203.696403 242.386897 202.634847 242.386897 
C 201.573292 242.386897 200.555072 242.808657 199.804439 243.55929 
C 199.053806 244.309924 198.632045 245.328143 198.632045 246.389699 
C 198.632045 247.451254 199.053806 248.469474 199.804439 249.220107 
C 200.555072 249.970741 201.573292 250.392501 202.634847 250.392501 
z
" style="fill:#ffede7;stroke:#ffede7;"/>
   </g>
   <g id="patch_3">
    <path d="M 3.00024 284.99976 
L 3.00024 3.00024 
" style="fill:none;"/>
   </g>
   <g id="patch_4">
    <path d="M 428.99976 284.99976 
L 428.99976 3.00024 
" style="fill:none;"/>
   </g>
   <g id="patch_5">
    <path d="M 3.00024 284.99976 
L 428.99976 284.99976 
" style="fill:none;"/>
   </g>
   <g id="patch_6">
    <path d="M 3.00024 3.00024 
L 428.99976 3.00024 
" style="fill:none;"/>
   </g>
  </g>
 </g>
 <defs>
  <clipPath id="pbb861a8ab9">
   <rect height="281.99952" width="425.99952" x="3.00024" y="3.00024"/>
  </clipPath>
 </defs>
</svg>
